<svg width="45" height="55" viewBox="0 0 45 55" fill="none" xmlns="http://www.w3.org/2000/svg">
<path d="M7.5 20.0245V20.0886C7.90825 20.0302 8.3256 20 8.75 20H36.25C36.6924 20 37.1272 20.0328 37.552 20.0962V20.0431L36.7768 19.0055C36.0689 18.058 34.9554 17.5 33.7727 17.5H11.2622C10.0767 17.5 8.96104 18.0606 8.25345 19.0117L7.5 20.0245ZM7.5 16.2591C8.57161 15.4514 9.8888 15 11.2622 15H17.5V5.03579C11.8751 5.65759 7.5 10.4264 7.5 16.2171V16.2591ZM20 15H25V2.5H20V15ZM27.5 15H33.7727C35.1533 15 36.4772 15.4562 37.552 16.272C37.5369 10.4661 33.144 5.68932 27.5 5.06834V15ZM43.2755 23.5333C44.3589 24.99 45 26.7951 45 28.75V33.75C45 38.175 41.7153 41.8329 37.4511 42.4182C36.8582 49.4654 30.9504 55 23.75 55H21.25C14.0496 55 8.14184 49.4654 7.54893 42.4182C3.28473 41.8329 0 38.175 0 33.75V28.75C0 26.4948 0.853159 24.4389 2.25432 22.8874L5 19.1966V16.2171C5 9.04457 10.4919 3.15472 17.5 2.52318V1.25C17.5 0.559644 18.0596 0 18.75 0H26.25C26.9404 0 27.5 0.559644 27.5 1.25V2.55584C34.5369 3.18754 40.052 9.10071 40.052 16.302V19.2123L43.2193 23.4516C43.2393 23.4783 43.258 23.5056 43.2755 23.5333ZM3.37534 25.5582C2.81934 26.4924 2.5 27.5839 2.5 28.75V33.75C2.5 37.2018 5.29822 40 8.75 40H10.91C13.601 40 16.0097 38.3307 16.9546 35.8111L17.9518 33.1519C18.6627 31.256 20.4752 30 22.5 30C24.5248 30 26.3373 31.256 27.0482 33.1519L28.0454 35.8111C28.9903 38.3307 31.399 40 34.09 40H36.25C39.7018 40 42.5 37.2018 42.5 33.75V28.75C42.5 25.2982 39.7018 22.5 36.25 22.5H8.75C6.94791 22.5 5.32395 23.2627 4.18331 24.4829L3.45678 25.4595C3.43103 25.4941 3.40384 25.527 3.37534 25.5582ZM34.9313 42.5H34.09C31.7019 42.5 29.474 41.5524 27.8355 39.9545C27.7288 39.9841 27.6162 40 27.5 40H17.5C17.3838 40 17.2712 39.9841 17.1645 39.9545C15.526 41.5524 13.2981 42.5 10.91 42.5H10.0687C10.6905 48.1249 15.4593 52.5 21.25 52.5H23.75C29.5407 52.5 34.3095 48.1249 34.9313 42.5ZM26.0551 37.5C25.9259 37.2375 25.8088 36.9669 25.7046 36.6889L24.7074 34.0297C24.3623 33.1096 23.4827 32.5 22.5 32.5C21.5173 32.5 20.6377 33.1096 20.2926 34.0297L19.2954 36.6889C19.1912 36.9669 19.0741 37.2375 18.9449 37.5H26.0551Z" fill="white"/>
</svg>
