<svg width="58" height="58" viewBox="0 0 58 58" fill="none" xmlns="http://www.w3.org/2000/svg">
<path d="M28.42 22.6198C29.1934 22.6198 29.9667 22.0398 29.9667 21.0731C29.9667 19.5265 31.5134 17.9798 33.2534 16.2398C35.1867 14.3065 37.5067 12.1798 37.5067 9.08646C37.5067 6.95979 36.3467 4.83313 34.0267 2.51313C33.4467 1.93313 32.48 1.93313 31.9 2.51313C31.32 3.09312 31.32 4.05979 31.9 4.63979C33.64 6.37979 34.4134 7.92646 34.4134 9.08646C34.4134 10.8265 32.8667 12.3731 31.1267 14.1131C29.1934 16.0465 27.0667 18.1731 27.0667 21.0731C27.0667 21.8465 27.6467 22.6198 28.42 22.6198ZM13.92 31.1265C10.6334 31.1265 7.92669 33.8331 7.92669 37.1198C7.92669 40.4065 10.6334 43.1131 13.92 43.1131C17.2067 43.1131 19.9134 40.4065 19.9134 37.1198C19.9134 33.8331 17.4 31.1265 13.92 31.1265ZM13.92 40.4065C12.18 40.4065 10.8267 39.0531 10.8267 37.3131C10.8267 35.5731 12.18 34.2198 13.92 34.2198C15.66 34.2198 17.0134 35.5731 17.0134 37.3131C17.0134 39.0531 15.66 40.4065 13.92 40.4065ZM50.0734 33.8331H48.14V31.8998C48.14 31.1265 47.56 30.3531 46.5934 30.3531H42.34C41.5667 30.3531 40.7934 30.9331 40.7934 31.8998V33.8331H38.86C38.0867 33.8331 37.3134 34.4131 37.3134 35.3798V39.6331C37.3134 40.4065 37.8934 41.1798 38.86 41.1798H40.7934V43.1131C40.7934 43.8865 41.3734 44.6598 42.34 44.6598H46.5934C47.3667 44.6598 48.14 44.0798 48.14 43.1131V41.1798H50.0734C50.8467 41.1798 51.62 40.5998 51.62 39.6331V35.3798C51.4267 34.4131 50.8467 33.8331 50.0734 33.8331ZM48.5267 38.0865H46.5934C45.82 38.0865 45.0467 38.6665 45.0467 39.6331V41.5665H43.6934V39.6331C43.6934 38.8598 43.1134 38.0865 42.1467 38.0865H40.2134V36.7331H42.1467C42.92 36.7331 43.6934 36.1531 43.6934 35.1865V33.2531H45.0467V35.1865C45.0467 35.9598 45.6267 36.7331 46.5934 36.7331H48.5267V38.0865ZM45.4334 23.9731H12.5667C7.54003 23.9731 0.193359 29.1931 0.193359 38.2798V43.1131C0.193359 49.1065 2.70669 55.6798 9.66669 55.6798C17.2067 55.6798 23.5867 46.7865 25.3267 44.0798H32.8667C34.6067 46.7865 40.9867 55.6798 48.5267 55.6798C55.4867 55.6798 58 49.1065 58 43.1131V38.2798C57.8067 28.9998 50.46 23.9731 45.4334 23.9731ZM54.9067 43.3065C54.9067 46.2065 54.3267 52.9731 48.3334 52.9731C41.18 52.9731 34.8 42.3398 34.8 42.1465C34.6067 41.7598 34.0267 41.3731 33.64 41.3731H24.5534C23.9734 41.3731 23.5867 41.5665 23.3934 42.1465C23.3934 42.3398 16.82 52.9731 9.86003 52.9731C4.06003 52.9731 3.28669 46.2065 3.28669 43.3065V38.4731C3.28669 30.7398 9.28003 27.0665 12.76 27.0665H45.6267C48.9134 27.0665 55.1 30.9331 55.1 38.4731V43.3065H54.9067Z" fill="white"/>
</svg>
