<svg width="60" height="60" viewBox="0 0 60 60" fill="none" xmlns="http://www.w3.org/2000/svg">
<g clip-path="url(#clip0_17_214)">
<path d="M29.5851 36.9526V33.7764C29.5851 33.5277 29.4863 33.2893 29.3105 33.1135C29.1347 32.9376 28.8963 32.8389 28.6476 32.8389C28.399 32.8389 28.1605 32.9376 27.9847 33.1135C27.8089 33.2893 27.7101 33.5277 27.7101 33.7764V36.9526C27.7095 37.5405 27.4756 38.1042 27.0599 38.5199C26.6442 38.9356 26.0805 39.1695 25.4926 39.1701H20.1826C19.934 39.1701 19.6955 39.2689 19.5197 39.4447C19.3439 39.6205 19.2451 39.859 19.2451 40.1076C19.2451 40.3563 19.3439 40.5947 19.5197 40.7705C19.6955 40.9463 19.934 41.0451 20.1826 41.0451H25.4926C26.5777 41.0441 27.6181 40.6126 28.3854 39.8454C29.1526 39.0781 29.5841 38.0377 29.5851 36.9526Z" fill="white"/>
<path d="M39.8362 39.1701H34.595C34.0067 39.1701 33.4424 38.9366 33.0261 38.5208C32.6098 38.105 32.3757 37.541 32.375 36.9526V33.7764C32.375 33.5277 32.2762 33.2893 32.1004 33.1135C31.9246 32.9376 31.6861 32.8389 31.4375 32.8389C31.1889 32.8389 30.9504 32.9376 30.7746 33.1135C30.5988 33.2893 30.5 33.5277 30.5 33.7764V36.9526C30.501 38.0377 30.9325 39.0781 31.6998 39.8454C32.467 40.6126 33.5074 41.0441 34.5925 41.0451H39.8337C40.0824 41.0451 40.3208 40.9463 40.4967 40.7705C40.6725 40.5947 40.7712 40.3563 40.7712 40.1076C40.7712 39.859 40.6725 39.6205 40.4967 39.4447C40.3208 39.2689 40.0824 39.1701 39.8337 39.1701H39.8362Z" fill="white"/>
<path d="M48.3525 34.5926C46.4075 35.1939 44.7588 35.5439 44.7425 35.5476C44.5498 35.5884 44.3749 35.6889 44.2425 35.8347C44.1101 35.9806 44.027 36.1644 44.005 36.3601L41.4675 58.9589C41.4538 59.0812 41.4643 59.205 41.4985 59.3232C41.5327 59.4415 41.5898 59.5518 41.6667 59.648C41.7435 59.7441 41.8386 59.8241 41.9464 59.8835C42.0542 59.9428 42.1727 59.9804 42.295 59.9939C42.3298 59.9984 42.3649 60.0005 42.4 60.0001C42.6306 60 42.8531 59.9149 43.0249 59.7611C43.1967 59.6073 43.3057 59.3956 43.3313 59.1664L45.7938 37.2314C46.4775 37.0701 47.62 36.7814 48.9063 36.3826C49.0238 36.3463 49.133 36.2871 49.2277 36.2085C49.3224 36.13 49.4006 36.0335 49.458 35.9247C49.5154 35.8159 49.5508 35.6968 49.5622 35.5743C49.5736 35.4518 49.5607 35.3283 49.5244 35.2108C49.488 35.0932 49.4289 34.984 49.3503 34.8893C49.2717 34.7947 49.1753 34.7164 49.0665 34.659C48.9577 34.6016 48.8386 34.5662 48.7161 34.5548C48.5936 34.5434 48.47 34.5563 48.3525 34.5926Z" fill="white"/>
<path d="M50.625 8.37498C49.1538 7.63677 47.4983 7.34645 45.8637 7.53998C43.9625 7.84748 41.1475 9.60248 41.1475 12.3937C41.1474 13.2311 41.3634 14.0543 41.7747 14.7837C42.1859 15.513 42.7785 16.124 43.495 16.5573C44.2115 16.9906 45.0277 17.2316 45.8647 17.257C46.7016 17.2825 47.531 17.0915 48.2725 16.7025L49.4862 24.0537L45.8325 23.265C45.6019 23.2134 45.3602 23.2524 45.1575 23.3737L39.6737 26.6125L34.2987 25.6525V22.74C35.4354 21.8365 36.2547 20.5944 36.6375 19.1937C36.9711 19.1466 37.2985 19.0628 37.6137 18.9437C39.2487 18.3275 40.3287 16.0875 40.0725 13.845C40.0526 13.5138 39.9613 13.1909 39.8049 12.8983C39.6485 12.6057 39.4306 12.3504 39.1662 12.15C38.9401 11.9884 38.6857 11.8705 38.4162 11.8025C38.7922 11.3636 39.1192 10.8849 39.3912 10.375C40.0239 9.1467 40.3406 7.7801 40.3125 6.39873C40.3988 4.30724 39.7613 2.24996 38.5075 0.573728C38.4195 0.470509 38.3104 0.387481 38.1874 0.330314C38.0644 0.273147 37.9306 0.243186 37.795 0.242478C37.6585 0.237486 37.5228 0.264505 37.3986 0.321374C37.2745 0.378242 37.1653 0.463381 37.08 0.569978C37.0712 0.578728 36.205 1.53623 35.3912 1.37873C34.8819 1.2644 34.3808 1.11615 33.8912 0.934978C32.2159 0.301057 30.4374 -0.0159932 28.6462 -2.18675e-05C26.5778 -0.0951108 24.5219 0.367713 22.6937 1.33998C22.4832 1.46921 22.3322 1.67632 22.2735 1.91629C22.2148 2.15625 22.2532 2.40968 22.3804 2.62148C22.5075 2.83328 22.7131 2.98634 22.9525 3.04738C23.1919 3.10843 23.4457 3.07252 23.6587 2.94748C25.1992 2.16091 26.9186 1.79116 28.6462 1.87498C30.2307 1.85535 31.8044 2.13702 33.2837 2.70498C33.8515 2.91503 34.4334 3.08503 35.025 3.21373C35.4716 3.2854 35.9281 3.26703 36.3675 3.15969C36.8069 3.05236 37.2204 2.85823 37.5837 2.58873C38.1897 3.74626 38.4876 5.04026 38.4487 6.34623C38.4814 7.44599 38.2364 8.53625 37.7362 9.51623C37.4092 10.1143 36.9969 10.6617 36.5125 11.1412C36.4332 10.654 36.256 10.1879 35.9915 9.77108C35.7271 9.35428 35.3808 8.99543 34.9737 8.71623C34.762 8.62932 34.5315 8.59851 34.3044 8.62676C34.0774 8.655 33.8614 8.74136 33.6775 8.87748C33.1505 9.35254 32.5185 9.69603 31.8333 9.87984C31.148 10.0637 30.4289 10.0825 29.735 9.93498C28.6657 9.79359 27.6359 9.43773 26.7075 8.88873C26.5881 8.80896 26.452 8.7576 26.3097 8.73858C26.1674 8.71956 26.0227 8.73339 25.8865 8.77901C25.7504 8.82462 25.6265 8.90082 25.5244 9.00174C25.4223 9.10267 25.3447 9.22564 25.2975 9.36123C25.0041 10.0847 24.6093 10.7627 24.125 11.375C24.0625 11.4575 24 11.5362 23.9375 11.6087C23.0821 10.8862 22.4315 9.9517 22.0509 8.89869C21.6703 7.84569 21.573 6.71117 21.7687 5.60873C21.8469 5.2167 21.9808 4.83787 22.1662 4.48373C22.232 4.3745 22.2749 4.25299 22.2921 4.12663C22.3093 4.00027 22.3006 3.87173 22.2665 3.74886C22.2323 3.626 22.1735 3.51139 22.0935 3.41205C22.0135 3.31271 21.9141 3.23073 21.8014 3.17113C21.6887 3.11152 21.5649 3.07554 21.4378 3.06539C21.3107 3.05525 21.1828 3.07114 21.0621 3.1121C20.9413 3.15306 20.8302 3.21823 20.7354 3.30363C20.6407 3.38902 20.5644 3.49284 20.5112 3.60873C20.2419 4.12006 20.047 4.66726 19.9325 5.23373C19.6932 6.38217 19.7161 7.56979 19.9994 8.70817C20.2827 9.84655 20.8191 10.9064 21.5687 11.8087C21.2914 11.875 21.0295 11.9942 20.7975 12.16C20.5333 12.3605 20.3156 12.6158 20.1594 12.9084C20.0032 13.201 19.9121 13.5239 19.8925 13.855C19.6362 16.105 20.7162 18.3375 22.3512 18.9537C22.6664 19.0729 22.9938 19.1568 23.3275 19.2037C23.7146 20.6171 24.5476 21.8679 25.7025 22.77V25.6662L20.3275 26.6262L14.835 23.375C14.6319 23.2545 14.3906 23.2156 14.16 23.2662L10.5 24.0575L11.7137 16.7062C12.4552 17.0952 13.2846 17.2862 14.1215 17.2608C14.9585 17.2353 15.7747 16.9943 16.4912 16.561C17.2077 16.1277 17.8003 15.5168 18.2115 14.7874C18.6228 14.058 18.8388 13.2348 18.8387 12.3975C18.8387 9.60623 16.0237 7.85123 14.1225 7.54373C12.4927 7.35111 10.8423 7.6401 9.37497 8.37498C4.39997 10.4137 0.457471 26.7562 0.0249715 28.6137C-0.0112058 28.7688 -0.00723392 28.9305 0.0365115 29.0836C0.0802569 29.2368 0.16233 29.3762 0.274971 29.4887C1.95974 31.1779 3.78599 32.7198 5.73372 34.0975C8.39273 35.5448 11.2467 36.6007 14.2075 37.2325L16.67 59.1662C16.6955 59.3952 16.8044 59.6067 16.9759 59.7605C17.1474 59.9143 17.3696 59.9995 17.6 60C17.6349 60.0024 17.67 60.0024 17.705 60C17.8273 59.9864 17.9458 59.9489 18.0536 59.8896C18.1614 59.8302 18.2565 59.7502 18.3333 59.6541C18.4102 59.5579 18.4673 59.4476 18.5015 59.3293C18.5357 59.2111 18.5462 59.0873 18.5325 58.965L16 36.36C15.978 36.1642 15.8949 35.9804 15.7625 35.8346C15.6301 35.6887 15.4552 35.5883 15.2625 35.5475C15.205 35.535 9.52497 34.3225 6.76247 32.5262C5.06104 31.3267 3.46145 29.9888 1.97997 28.5262C3.59247 21.8375 7.09372 11.3387 10.0887 10.1125C11.2424 9.51383 12.5454 9.26408 13.8387 9.39373C15.1225 9.60123 16.98 10.79 16.98 12.3937C16.9822 13.0017 16.7992 13.5959 16.4553 14.0972C16.1114 14.5985 15.6229 14.9831 15.0548 15.1997C14.4868 15.4164 13.8663 15.4549 13.2758 15.31C12.6854 15.1651 12.1532 14.8437 11.75 14.3887C11.6322 14.2566 11.4793 14.1605 11.3091 14.1116C11.139 14.0626 10.9584 14.0629 10.7884 14.1124C10.6184 14.1618 10.4659 14.2584 10.3484 14.3909C10.231 14.5234 10.1536 14.6865 10.125 14.8612L8.42997 25.1112C8.40502 25.2623 8.41742 25.4171 8.4661 25.5622C8.51478 25.7073 8.59825 25.8383 8.70923 25.9438C8.8202 26.0492 8.95531 26.1258 9.10273 26.167C9.25016 26.2082 9.40543 26.2126 9.55497 26.18L14.1987 25.18L19.6662 28.4087C19.86 28.5218 20.0877 28.5626 20.3087 28.5237L26.795 27.365C27.0115 27.3263 27.2075 27.2126 27.3487 27.044C27.49 26.8754 27.5674 26.6624 27.5675 26.4425V23.805C28.3454 24.0967 29.1691 24.2474 30 24.25C30.8328 24.2488 31.6585 24.0972 32.4375 23.8025V26.4462C32.4376 26.6662 32.515 26.8791 32.6562 27.0478C32.7974 27.2164 32.9934 27.33 33.21 27.3687L39.6962 28.5275C39.9173 28.5659 40.1448 28.5252 40.3387 28.4125L45.8062 25.1837L50.45 26.1837C50.5995 26.2164 50.7548 26.2119 50.9022 26.1708C51.0496 26.1296 51.1847 26.0529 51.2957 25.9475C51.4067 25.8421 51.4902 25.7111 51.5389 25.566C51.5875 25.4208 51.5999 25.266 51.575 25.115L49.88 14.865C49.8514 14.6902 49.7739 14.5272 49.6565 14.3946C49.5391 14.2621 49.3865 14.1655 49.2165 14.1161C49.0465 14.0667 48.866 14.0664 48.6958 14.1153C48.5256 14.1642 48.3728 14.2603 48.255 14.3925C47.8515 14.8449 47.3201 15.1641 46.7311 15.3077C46.1422 15.4513 45.5235 15.4126 44.957 15.1967C44.3906 14.9808 43.9031 14.5978 43.5592 14.0986C43.2153 13.5994 43.0311 13.0074 43.0312 12.4012C43.0312 10.795 44.8887 9.60623 46.1725 9.40123C47.4657 9.27187 48.7687 9.52161 49.9225 10.12C52.9225 11.3462 56.4225 21.845 58.0312 28.5337C56.5499 29.9965 54.9503 31.3344 53.2487 32.5337C52.5784 32.9519 51.8728 33.3108 51.14 33.6062C50.94 33.6898 50.7752 33.8401 50.6735 34.0315C50.5718 34.2229 50.5396 34.4436 50.5824 34.6561C50.6251 34.8685 50.7401 35.0596 50.9079 35.1969C51.0756 35.3341 51.2858 35.409 51.5025 35.4087C51.6265 35.4083 51.7492 35.3837 51.8637 35.3362C52.7008 34.9973 53.5064 34.5853 54.2712 34.105C56.219 32.7273 58.0452 31.1854 59.73 29.4962C59.8426 29.3837 59.9247 29.2443 59.9684 29.0911C60.0122 28.938 60.0162 28.7763 59.98 28.6212C59.5425 26.7562 55.6 10.4137 50.625 8.37498ZM36.9637 17.1937C36.9375 17.2037 36.9137 17.2075 36.8887 17.2162V13.6537C37.2799 13.548 37.6931 13.5558 38.08 13.6762C38.175 13.745 38.205 13.97 38.22 14.0625C38.3235 14.6496 38.2606 15.254 38.0387 15.8074C37.8167 16.3607 37.4443 16.8409 36.9637 17.1937ZM21.75 14.0625C21.7612 13.9687 21.7962 13.745 21.89 13.6762C22.2765 13.5559 22.6892 13.5481 23.08 13.6537V17.2162C23.055 17.2075 23.0325 17.2037 23.0062 17.1937C22.5256 16.8409 22.1533 16.3607 21.9313 15.8074C21.7093 15.254 21.6465 14.6496 21.75 14.0625ZM29.9712 22.375C28.6517 22.3843 27.3824 21.8698 26.4417 20.9444C25.5011 20.019 24.9659 18.7582 24.9537 17.4387V13.27C25.1848 13.0295 25.4026 12.7766 25.6062 12.5125C25.9843 12.0223 26.3221 11.5022 26.6162 10.9575C27.5252 11.3706 28.4888 11.651 29.4775 11.79C30.3214 11.9645 31.1929 11.9567 32.0337 11.7672C32.8744 11.5777 33.665 11.2109 34.3525 10.6912C34.6573 11.4252 34.8799 12.1907 35.0162 12.9737V17.4337C35.01 18.0896 34.8745 18.7378 34.6175 19.3413C34.3605 19.9448 33.987 20.4916 33.5184 20.9506C33.0498 21.4095 32.4953 21.7716 31.8867 22.016C31.278 22.2604 30.6271 22.3824 29.9712 22.375Z" fill="white"/>
<path d="M28.7401 41.8311C28.4914 41.8311 28.253 41.9298 28.0772 42.1056C27.9014 42.2815 27.8026 42.5199 27.8026 42.7686V43.5936C27.8026 43.7873 27.7257 43.9731 27.5888 44.1102C27.452 44.2473 27.2663 44.3245 27.0726 44.3248H24.5176C24.2689 44.3248 24.0305 44.4236 23.8547 44.5994C23.6788 44.7752 23.5801 45.0137 23.5801 45.2623C23.5801 45.5109 23.6788 45.7494 23.8547 45.9252C24.0305 46.101 24.2689 46.1998 24.5176 46.1998H27.0726C27.7634 46.1988 28.4256 45.9239 28.9139 45.4353C29.4023 44.9467 29.6769 44.2844 29.6776 43.5936V42.7686C29.6776 42.5199 29.5788 42.2815 29.403 42.1056C29.2272 41.9298 28.9887 41.8311 28.7401 41.8311Z" fill="white"/>
<path d="M28.7401 46.9849C28.4914 46.9849 28.253 47.0836 28.0772 47.2595C27.9014 47.4353 27.8026 47.6737 27.8026 47.9224V48.7499C27.8022 48.9434 27.7252 49.1289 27.5884 49.2657C27.4516 49.4025 27.2661 49.4795 27.0726 49.4799H24.5176C24.2689 49.4799 24.0305 49.5786 23.8547 49.7544C23.6788 49.9303 23.5801 50.1687 23.5801 50.4174C23.5801 50.666 23.6788 50.9045 23.8547 51.0803C24.0305 51.2561 24.2689 51.3549 24.5176 51.3549H27.0726C27.7632 51.3539 28.4252 51.0791 28.9135 50.5908C29.4018 50.1025 29.6766 49.4404 29.6776 48.7499V47.9236C29.6777 47.8004 29.6536 47.6784 29.6066 47.5645C29.5595 47.4506 29.4905 47.3471 29.4034 47.2599C29.3164 47.1727 29.213 47.1035 29.0991 47.0563C28.9853 47.0092 28.8633 46.9849 28.7401 46.9849Z" fill="white"/>
<path d="M35.5699 44.3248H33.0149C32.821 44.3248 32.635 44.2478 32.4979 44.1106C32.3607 43.9735 32.2837 43.7875 32.2837 43.5936V42.7686C32.2837 42.5199 32.1849 42.2815 32.0091 42.1056C31.8333 41.9298 31.5948 41.8311 31.3462 41.8311C31.0976 41.8311 30.8591 41.9298 30.6833 42.1056C30.5075 42.2815 30.4087 42.5199 30.4087 42.7686V43.5936C30.4094 44.2846 30.6842 44.9471 31.1728 45.4357C31.6614 45.9243 32.3239 46.1991 33.0149 46.1998H35.5699C35.8186 46.1998 36.057 46.101 36.2329 45.9252C36.4087 45.7494 36.5074 45.5109 36.5074 45.2623C36.5074 45.0137 36.4087 44.7752 36.2329 44.5994C36.057 44.4236 35.8186 44.3248 35.5699 44.3248Z" fill="white"/>
<path d="M35.5699 49.4788H33.0149C32.8214 49.4788 32.6358 49.4021 32.4988 49.2655C32.3617 49.1289 32.2844 48.9436 32.2837 48.7501V47.9238C32.2837 47.6752 32.1849 47.4367 32.0091 47.2609C31.8333 47.0851 31.5948 46.9863 31.3462 46.9863C31.0976 46.9863 30.8591 47.0851 30.6833 47.2609C30.5075 47.4367 30.4087 47.6752 30.4087 47.9238V48.7501C30.4097 49.4409 30.6846 50.1031 31.1732 50.5914C31.6618 51.0798 32.3241 51.3544 33.0149 51.3551H35.5699C35.8186 51.3551 36.057 51.2563 36.2329 51.0805C36.4087 50.9047 36.5074 50.6662 36.5074 50.4176C36.5074 50.1689 36.4087 49.9305 36.2329 49.7547C36.057 49.5788 35.8186 49.4801 35.5699 49.4801V49.4788Z" fill="white"/>
<path d="M28.7401 52.3823C28.4914 52.3823 28.253 52.4811 28.0772 52.6569C27.9014 52.8327 27.8026 53.0712 27.8026 53.3198V54.1461C27.8022 54.3396 27.7252 54.5251 27.5884 54.6619C27.4516 54.7987 27.2661 54.8757 27.0726 54.8761H24.5176C24.2689 54.8761 24.0305 54.9749 23.8547 55.1507C23.6788 55.3265 23.5801 55.5649 23.5801 55.8136C23.5801 56.0622 23.6788 56.3007 23.8547 56.4765C24.0305 56.6523 24.2689 56.7511 24.5176 56.7511H27.0726C27.7632 56.7501 28.4252 56.4753 28.9135 55.987C29.4018 55.4987 29.6766 54.8367 29.6776 54.1461V53.3198C29.6776 53.0712 29.5788 52.8327 29.403 52.6569C29.2272 52.4811 28.9887 52.3823 28.7401 52.3823Z" fill="white"/>
<path d="M35.5699 54.8751H33.0149C32.8212 54.8751 32.6354 54.7982 32.4983 54.6614C32.3612 54.5245 32.284 54.3388 32.2837 54.1451V53.3188C32.2837 53.0702 32.1849 52.8317 32.0091 52.6559C31.8333 52.4801 31.5948 52.3813 31.3462 52.3813C31.0976 52.3813 30.8591 52.4801 30.6833 52.6559C30.5075 52.8317 30.4087 53.0702 30.4087 53.3188V54.1451C30.4097 54.8359 30.6846 55.4981 31.1732 55.9865C31.6618 56.4748 32.3241 56.7494 33.0149 56.7501H35.5699C35.8186 56.7501 36.057 56.6513 36.2329 56.4755C36.4087 56.2997 36.5074 56.0612 36.5074 55.8126C36.5074 55.564 36.4087 55.3255 36.2329 55.1497C36.057 54.9739 35.8186 54.8751 35.5699 54.8751Z" fill="white"/>
</g>
<defs>
<clipPath id="clip0_17_214">
<rect width="60" height="60" fill="white"/>
</clipPath>
</defs>
</svg>
