<svg width="100" height="74" viewBox="0 0 100 74" fill="none" xmlns="http://www.w3.org/2000/svg">
<path d="M40 22.3947V26.0653H34.5531V16.6759H27.6481V58H19.5665V53.2363H22.857V35.796H20.257L9.94956 35.7845V46.8769H1.86409V42.1132H5.1546V31.0208H13.3519V16.6759H2.75519V7.28262H1V3.612H6.44688V13.0014H13.3519V13.0052H17.2519C15.6703 11.8316 14.6249 9.82558 14.6249 7.54727C14.6249 3.93036 17.2558 1 20.5 1C23.7442 1 26.3751 3.93036 26.3751 7.54727C26.3751 9.82558 25.3335 11.8316 23.7481 13.0052H38.2448V22.3947H40Z" stroke="white" stroke-width="2" stroke-miterlimit="10" stroke-linecap="round" stroke-linejoin="round"/>
<path d="M60 22.3947V26.0653H65.4469V16.6759H72.3519V58H80.4335V53.2363H77.143V35.796H79.743L90.0504 35.7845V46.8769H98.1359V42.1132H94.8454V31.0208H86.6481V16.6759H97.2448V7.28262H99V3.612H93.5531V13.0014H86.6481V13.0052H82.7481C84.3297 11.8316 85.3751 9.82558 85.3751 7.54727C85.3751 3.93036 82.7442 1 79.5 1C76.2558 1 73.6249 3.93036 73.6249 7.54727C73.6249 9.82558 74.6665 11.8316 76.2519 13.0052H61.7552V22.3947H60Z" stroke="white" stroke-width="2" stroke-miterlimit="10" stroke-linecap="round" stroke-linejoin="round"/>
<path d="M39.0612 52.173L36.2468 49.3961L38.5248 47.1484L34 40.9195L40.5345 28.8452L40.5578 28.8682V28.8452H46.5248C44.8183 27.591 43.6949 25.4431 43.6949 23.0075C43.6949 19.1451 46.517 16.0153 50.0039 16C53.4908 16.0153 56.3129 19.1451 56.3129 23.0075C56.3129 25.4431 55.1895 27.591 53.483 28.8452H59.4461V28.8682L59.4694 28.8452L66 40.9195L61.4752 47.1484L63.7532 49.3961L60.9388 52.173L57.6851 48.9627V67.9026H61.2342V73H52.519V52.9094H47.4849V73H38.7658V67.9026H42.3149V48.9627L39.0612 52.173ZM42.3149 34.3722L38.3693 40.9157L42.3149 45.8904V34.3722ZM57.6851 45.8904L61.6268 40.9157L57.6851 34.3722V45.8904Z" stroke="white" stroke-width="2" stroke-miterlimit="10" stroke-linecap="round" stroke-linejoin="round"/>
</svg>
