<svg width="36" height="36" viewBox="0 0 36 36" fill="none" xmlns="http://www.w3.org/2000/svg">
<path d="M18 0C14.4399 0 10.9598 1.05568 7.99974 3.03355C5.03966 5.01141 2.73255 7.82263 1.37018 11.1117C0.00779906 14.4008 -0.348661 18.02 0.345873 21.5116C1.04041 25.0033 2.75474 28.2106 5.27209 30.7279C7.78943 33.2453 10.9967 34.9596 14.4884 35.6541C17.98 36.3487 21.5992 35.9922 24.8883 34.6298C28.1774 33.2674 30.9886 30.9603 32.9665 28.0003C34.9443 25.0402 36 21.5601 36 18C35.9948 13.2277 34.0967 8.65236 30.7222 5.27783C27.3476 1.90331 22.7723 0.00521115 18 0V0ZM18 34.3125C14.7737 34.3125 11.6198 33.3558 8.93727 31.5633C6.25469 29.7709 4.16388 27.2232 2.92922 24.2425C1.69457 21.2618 1.37153 17.9819 2.00095 14.8176C2.63037 11.6533 4.18398 8.74666 6.46533 6.46532C8.74667 4.18398 11.6533 2.63036 14.8176 2.00094C17.9819 1.37152 21.2618 1.69456 24.2425 2.92921C27.2232 4.16387 29.7709 6.25468 31.5633 8.93726C33.3558 11.6198 34.3125 14.7737 34.3125 18C34.3073 22.3247 32.587 26.4709 29.5289 29.5289C26.4709 32.587 22.3247 34.3073 18 34.3125Z" fill="#26B7E2"/>
<path d="M25.7545 10.2527C25.5993 10.0984 25.389 10.0118 25.1697 10.0118C24.9505 10.0118 24.7402 10.0984 24.585 10.2527L17.9986 16.8328L11.415 10.2417C11.2595 10.087 11.0487 10 10.8289 10C10.609 10 10.3982 10.087 10.2428 10.2417C10.0873 10.3965 10 10.6064 10 10.8253C10 11.0442 10.0873 11.2541 10.2428 11.4089L16.8292 18L10.2428 24.5911C10.0877 24.7459 10.0007 24.9557 10.001 25.1743C10.0012 25.3929 10.0887 25.6025 10.2441 25.7569C10.3996 25.9113 10.6103 25.9979 10.8298 25.9977C11.0494 25.9974 11.2599 25.9103 11.415 25.7555L17.9986 19.1672L24.585 25.7583C24.7405 25.913 24.9513 26 25.1711 26C25.391 26 25.6018 25.913 25.7572 25.7583C25.9127 25.6035 26 25.3936 26 25.1747C26 24.9558 25.9127 24.7459 25.7572 24.5911L19.1681 18L25.7572 11.4089C25.9093 11.2544 25.9943 11.0466 25.9937 10.8302C25.9932 10.6139 25.9073 10.4065 25.7545 10.2527Z" fill="#26B7E2"/>
</svg>
