<svg width="34" height="27" viewBox="0 0 34 27" fill="none" xmlns="http://www.w3.org/2000/svg">
<path d="M27.2167 11.1137L31.1172 7.24395C31.438 6.93653 31.8677 6.76643 32.3137 6.77028C32.7597 6.77412 33.1864 6.95161 33.5018 7.26451C33.8172 7.57741 33.9961 8.00069 33.9999 8.44318C34.0038 8.88567 33.8324 9.31197 33.5225 9.63026L23.3162 19.7561C22.9954 20.0635 22.5657 20.2336 22.1197 20.2297C21.6737 20.2259 21.2471 20.0484 20.9317 19.7355C20.6163 19.4226 20.4374 18.9993 20.4335 18.5568C20.4296 18.1143 20.6011 17.688 20.9109 17.3697L24.8114 13.5L20.9109 9.63026C20.7485 9.47458 20.6189 9.28836 20.5297 9.08246C20.4406 8.87656 20.3937 8.65511 20.3917 8.43103C20.3897 8.20695 20.4328 7.98472 20.5183 7.77732C20.6038 7.56992 20.7301 7.38149 20.8899 7.22303C21.0496 7.06458 21.2395 6.93926 21.4486 6.85441C21.6576 6.76955 21.8816 6.72685 22.1075 6.7288C22.3333 6.73075 22.5565 6.7773 22.7641 6.86575C22.9716 6.9542 23.1593 7.08276 23.3162 7.24395L27.2167 11.1137ZM3.40209 10.1247V18.5629C3.40209 19.0105 3.22287 19.4397 2.90387 19.7562C2.58486 20.0727 2.15219 20.2505 1.70105 20.2505C1.2499 20.2505 0.817232 20.0727 0.498224 19.7562C0.179217 19.4397 0 19.0105 0 18.5629V8.43711C0 7.98952 0.179217 7.56026 0.498224 7.24377C0.817232 6.92728 1.2499 6.74947 1.70105 6.74947H6.20881L14.2463 0.370226C14.4964 0.171563 14.7979 0.0470143 15.1162 0.0109181C15.4345 -0.0251782 15.7567 0.0286461 16.0455 0.166194C16.3343 0.303742 16.5781 0.51942 16.7489 0.788399C16.9196 1.05738 17.0103 1.36872 17.0105 1.68658V25.3134C17.0103 25.6313 16.9196 25.9426 16.7489 26.2116C16.5781 26.4806 16.3343 26.6963 16.0455 26.8338C15.7567 26.9714 15.4345 27.0252 15.1162 26.9891C14.7979 26.953 14.4964 26.8284 14.2463 26.6298L5.74103 19.8792C5.55885 19.7435 5.40603 19.5728 5.29163 19.3773C5.17723 19.1818 5.10358 18.9655 5.07506 18.7412C5.04654 18.5169 5.06373 18.2892 5.12561 18.0716C5.18749 17.8541 5.29279 17.6511 5.43527 17.4747C5.57775 17.2983 5.7545 17.152 5.95503 17.0447C6.15556 16.9374 6.37578 16.8711 6.60263 16.8498C6.82947 16.8285 7.05831 16.8527 7.27556 16.9208C7.49282 16.989 7.69406 17.0997 7.86733 17.2465L13.6084 21.8032V5.19685L7.86733 9.75346C7.56577 9.99349 7.19079 10.1244 6.80418 10.1247H3.40209ZM29.4162 18.0684C29.1063 17.7501 28.9349 17.3238 28.9387 16.8813C28.9426 16.4388 29.1215 16.0156 29.4369 15.7027C29.7523 15.3898 30.1789 15.2123 30.6249 15.2084C31.0709 15.2046 31.5006 15.3747 31.8215 15.6821L33.5225 17.3697C33.8324 17.688 34.0038 18.1143 33.9999 18.5568C33.9961 18.9993 33.8172 19.4226 33.5018 19.7355C33.1864 20.0484 32.7597 20.2259 32.3137 20.2297C31.8677 20.2336 31.438 20.0635 31.1172 19.7561L29.4162 18.0684Z" fill="white"/>
</svg>
