<svg width="34" height="27" viewBox="0 0 34 27" fill="none" xmlns="http://www.w3.org/2000/svg">
<path d="M26.6186 3.95307C26.3215 3.63264 26.1607 3.21062 26.1697 2.77523C26.1788 2.33983 26.3571 1.92478 26.6673 1.61685C26.9775 1.30891 27.3957 1.13193 27.8343 1.12291C28.2729 1.11389 28.698 1.27353 29.0208 1.56844C35.6597 8.15865 35.6597 18.8447 29.0208 25.4349C28.7002 25.7423 28.2707 25.9125 27.825 25.9086C27.3792 25.9048 26.9528 25.7273 26.6376 25.4144C26.3224 25.1015 26.1436 24.6782 26.1397 24.2357C26.1358 23.7932 26.3072 23.3669 26.6169 23.0486C27.8799 21.7949 28.8818 20.3065 29.5653 18.6685C30.2489 17.0304 30.6007 15.2747 30.6007 13.5017C30.6007 11.7286 30.2489 9.97297 29.5653 8.3349C28.8818 6.69683 27.8799 5.20845 26.6169 3.95476L26.6186 3.95307ZM21.809 8.72738C21.49 8.41071 21.3107 7.98122 21.3107 7.53338C21.3107 7.31163 21.3547 7.09206 21.4402 6.88719C21.5257 6.68232 21.651 6.49618 21.809 6.33938C21.9669 6.18258 22.1544 6.0582 22.3608 5.97334C22.5672 5.88848 22.7884 5.84481 23.0118 5.84481C23.4629 5.84481 23.8956 6.02271 24.2146 6.33938C25.162 7.27967 25.9135 8.396 26.4263 9.62463C26.939 10.8533 27.2029 12.1701 27.2029 13.5C27.2029 14.8299 26.939 16.1467 26.4263 17.3754C25.9135 18.604 25.162 19.7203 24.2146 20.6606C23.8956 20.9773 23.4629 21.1552 23.0118 21.1552C22.5606 21.1552 22.128 20.9773 21.809 20.6606C21.49 20.344 21.3107 19.9145 21.3107 19.4666C21.3107 19.0188 21.49 18.5893 21.809 18.2726C23.0838 17.0067 23.8 15.29 23.8 13.5C23.8 11.71 23.0838 9.99329 21.809 8.72738ZM3.40021 10.1247V18.5629C3.40021 19.0105 3.2211 19.4397 2.90226 19.7562C2.58343 20.0727 2.151 20.2505 1.70011 20.2505C1.24921 20.2505 0.816781 20.0727 0.49795 19.7562C0.179118 19.4397 0 19.0105 0 18.5629V8.43711C0 7.98952 0.179118 7.56026 0.49795 7.24377C0.816781 6.92728 1.24921 6.74947 1.70011 6.74947H6.20539L14.2384 0.370226C14.4884 0.171563 14.7898 0.0470143 15.1079 0.0109181C15.426 -0.0251782 15.748 0.0286461 16.0366 0.166194C16.3253 0.303742 16.569 0.51942 16.7396 0.788399C16.9102 1.05738 17.0009 1.36872 17.0011 1.68658V25.3134C17.0009 25.6313 16.9102 25.9426 16.7396 26.2116C16.569 26.4806 16.3253 26.6963 16.0366 26.8338C15.748 26.9714 15.426 27.0252 15.1079 26.9891C14.7898 26.953 14.4884 26.8284 14.2384 26.6298L5.73786 19.8792C5.55578 19.7435 5.40304 19.5728 5.28871 19.3773C5.17437 19.1818 5.10076 18.9655 5.07226 18.7412C5.04376 18.5169 5.06094 18.2892 5.12278 18.0716C5.18462 17.8541 5.28987 17.6511 5.43227 17.4747C5.57467 17.2983 5.75132 17.152 5.95174 17.0447C6.15216 16.9374 6.37226 16.8711 6.59898 16.8498C6.8257 16.8285 7.05441 16.8527 7.27155 16.9208C7.48868 16.989 7.68981 17.0997 7.86299 17.2465L13.6009 21.8032V5.19685L7.86299 9.75346C7.5616 9.99349 7.18683 10.1244 6.80043 10.1247H3.40021Z" fill="white"/>
</svg>
