<svg width="17" height="17" viewBox="0 0 17 17" fill="none" xmlns="http://www.w3.org/2000/svg">
<path d="M17 8.5151C17 6.97513 16.615 5.5484 15.8526 4.24245C15.0901 2.9365 14.056 1.90231 12.75 1.13988C11.444 0.377442 10.0249 0 8.49245 0C7.34503 0 6.2429 0.226465 5.19361 0.671847C4.14432 1.11723 3.246 1.72869 2.48357 2.48357C1.72114 3.23845 1.11723 4.14432 0.671846 5.20115C0.226465 6.25799 0 7.35258 0 8.5151C0 9.66252 0.226465 10.7647 0.671846 11.8139C1.11723 12.8632 1.72869 13.7691 2.48357 14.524C3.23845 15.2789 4.14432 15.8828 5.19361 16.3282C6.2429 16.7735 7.33748 17 8.49245 17C9.64742 17 10.7571 16.7735 11.8064 16.3282C12.8557 15.8828 13.7615 15.2713 14.524 14.5164C15.2864 13.7615 15.8828 12.8557 16.3357 11.8139C16.7886 10.7722 17 9.67007 17 8.5151ZM15.1279 8.5151C15.1279 10.3042 14.4787 11.8592 13.1727 13.1803C11.8668 14.4862 10.3117 15.1354 8.49245 15.1354C7.29973 15.1354 6.19005 14.841 5.17851 14.2447C4.16696 13.6483 3.35169 12.8481 2.75533 11.829C2.15897 10.8099 1.85702 9.70782 1.85702 8.5151C1.85702 7.32238 2.15897 6.2127 2.75533 5.19361C3.35169 4.17451 4.15941 3.36679 5.17851 2.77043C6.1976 2.17407 7.29973 1.87966 8.49245 1.87966C9.68517 1.87966 10.7948 2.17407 11.8064 2.77043C12.8179 3.36679 13.6332 4.17451 14.2371 5.19361C14.841 6.2127 15.1279 7.32238 15.1279 8.5151ZM12.1461 10.0928C12.1008 9.92673 12.0027 9.7984 11.8592 9.70782L9.1492 8.13011V3.48757C9.1492 3.31394 9.08881 3.16297 8.96803 3.04218C8.84725 2.9214 8.69627 2.86101 8.52265 2.86101C8.34902 2.86101 8.19805 2.9214 8.07726 3.04218C7.95648 3.16297 7.89609 3.31394 7.89609 3.48757V8.52265C7.89609 8.66607 7.94139 8.78686 8.02442 8.90009C8.10746 9.01332 8.21314 9.08126 8.34147 9.11901L11.2402 10.8024C11.3308 10.8628 11.429 10.893 11.5497 10.893C11.7913 10.893 11.9725 10.7873 12.0933 10.5759C12.1687 10.4174 12.1914 10.2589 12.1461 10.0928Z" fill="#26B7E2"/>
</svg>
